<?xml version="1.0" encoding="UTF-8" standalone="no"?>
<!-- Created with Inkscape (http://www.inkscape.org/) -->

<svg
   xmlns:dc="http://purl.org/dc/elements/1.1/"
   xmlns:cc="http://creativecommons.org/ns#"
   xmlns:rdf="http://www.w3.org/1999/02/22-rdf-syntax-ns#"
   xmlns:svg="http://www.w3.org/2000/svg"
   xmlns="http://www.w3.org/2000/svg"
   xmlns:xlink="http://www.w3.org/1999/xlink"
   xmlns:sodipodi="http://sodipodi.sourceforge.net/DTD/sodipodi-0.dtd"
   xmlns:inkscape="http://www.inkscape.org/namespaces/inkscape"
   version="1.0"
   width="257"
   height="256"
   id="svg3278"
   inkscape:version="0.48.2 r9819"
   sodipodi:docname="icon.svg"
   inkscape:export-filename="/home/me/scripts/python/gtk/pptool/gui/icon.png"
   inkscape:export-xdpi="124.73042"
   inkscape:export-ydpi="124.73042">
  <metadata
     id="metadata30">
    <rdf:RDF>
      <cc:Work
         rdf:about="">
        <dc:format>image/svg+xml</dc:format>
        <dc:type
           rdf:resource="http://purl.org/dc/dcmitype/StillImage" />
        <dc:title />
      </cc:Work>
    </rdf:RDF>
  </metadata>
  <sodipodi:namedview
     pagecolor="#ffffff"
     bordercolor="#666666"
     borderopacity="1"
     objecttolerance="10"
     gridtolerance="10"
     guidetolerance="10"
     inkscape:pageopacity="0"
     inkscape:pageshadow="2"
     inkscape:window-width="1920"
     inkscape:window-height="1031"
     id="namedview28"
     showgrid="false"
     inkscape:zoom="2.8284271"
     inkscape:cx="0.44333842"
     inkscape:cy="114.44625"
     inkscape:window-x="0"
     inkscape:window-y="21"
     inkscape:window-maximized="1"
     inkscape:current-layer="svg3278" />
  <defs
     id="defs3280">
    <linearGradient
       id="linearGradient8838">
      <stop
         id="stop8840"
         style="stop-color:#000000;stop-opacity:1"
         offset="0" />
      <stop
         id="stop8842"
         style="stop-color:#000000;stop-opacity:0"
         offset="1" />
    </linearGradient>
    <radialGradient
       cx="62.625"
       cy="4.625"
       r="10.625"
       fx="62.625"
       fy="4.625"
       id="radialGradient2506"
       xlink:href="#linearGradient8838"
       gradientUnits="userSpaceOnUse"
       gradientTransform="matrix(2.9176471,0,0,0.988234,-150.71765,48.92941)" />
    <linearGradient
       id="linearGradient3707-319-631">
      <stop
         id="stop4637"
         style="stop-color:#254b6d;stop-opacity:1"
         offset="0" />
      <stop
         id="stop4639"
         style="stop-color:#415b73;stop-opacity:1"
         offset="0.5" />
      <stop
         id="stop4641"
         style="stop-color:#6195b5;stop-opacity:1"
         offset="1" />
    </linearGradient>
    <linearGradient
       x1="20"
       y1="43"
       x2="20"
       y2="2.6887112"
       id="linearGradient2482"
       xlink:href="#linearGradient3707-319-631"
       gradientUnits="userSpaceOnUse"
       gradientTransform="matrix(1.2815568,0,0,1.2815276,0.732995,3.7535506)" />
    <linearGradient
       id="linearGradient2867-449-88-871-390-598-476-591-434-148">
      <stop
         id="stop4627"
         style="stop-color:#51cfee;stop-opacity:1"
         offset="0" />
      <stop
         id="stop4629"
         style="stop-color:#49a3d2;stop-opacity:1"
         offset="0.26238" />
      <stop
         id="stop4631"
         style="stop-color:#3470b4;stop-opacity:1"
         offset="0.704952" />
      <stop
         id="stop4633"
         style="stop-color:#273567;stop-opacity:1"
         offset="1" />
    </linearGradient>
    <radialGradient
       cx="61.240059"
       cy="-8.7256308"
       r="9.7552834"
       fx="61.240059"
       fy="-8.7256308"
       id="radialGradient2480"
       xlink:href="#linearGradient2867-449-88-871-390-598-476-591-434-148"
       gradientUnits="userSpaceOnUse"
       gradientTransform="matrix(0,4.6075349,-4.6075326,0,-8.203654,-266.50589)" />
    <linearGradient
       id="linearGradient4873">
      <stop
         id="stop4875"
         style="stop-color:#ffffff;stop-opacity:1"
         offset="0" />
      <stop
         id="stop4877"
         style="stop-color:#ffffff;stop-opacity:0"
         offset="1" />
    </linearGradient>
    <linearGradient
       x1="63.397362"
       y1="-12.489107"
       x2="63.397362"
       y2="5.4675598"
       id="linearGradient2498"
       xlink:href="#linearGradient4873"
       gradientUnits="userSpaceOnUse"
       gradientTransform="matrix(2.8014404,0,0,2.8013767,-142.25072,43.835172)" />
    <linearGradient
       id="linearGradient3087-462-170-890-278">
      <stop
         id="stop3193"
         offset="0"
         style="stop-color:#484848;stop-opacity:1;" />
      <stop
         style="stop-color:#878787;stop-opacity:1;"
         offset="0"
         id="stop3195" />
      <stop
         id="stop3197"
         offset="0"
         style="stop-color:#6b6b6b;stop-opacity:1;" />
      <stop
         style="stop-color:#4d4d4d;stop-opacity:1;"
         offset="0.75"
         id="stop3199" />
      <stop
         id="stop3201"
         offset="1"
         style="stop-color:#4e4e4e;stop-opacity:1;" />
    </linearGradient>
    <linearGradient
       id="linearGradient2250">
      <stop
         id="stop2252"
         offset="0"
         style="stop-color:#b9b9b9;stop-opacity:1;" />
      <stop
         id="stop2254"
         offset="1"
         style="stop-color:#ffffff;stop-opacity:0;" />
    </linearGradient>
    <linearGradient
       id="linearGradient5546"
       gradientUnits="userSpaceOnUse"
       x1="63.9995"
       y1="3.1001"
       x2="63.9995"
       y2="122.8994">
      <stop
         offset="0"
         style="stop-color:#d8d8d8;stop-opacity:1;"
         id="stop5548" />
      <stop
         offset="1"
         style="stop-color:#ffffff;stop-opacity:1;"
         id="stop5550" />
    </linearGradient>
    <linearGradient
       spreadMethod="pad"
       xlink:href="#XMLID_5_"
       y2="103.06695"
       x2="64"
       y1="21.523018"
       x1="64"
       gradientUnits="userSpaceOnUse"
       id="XMLID_6_">
      <stop
         id="stop31"
         style="stop-color:#d9d9d9;stop-opacity:1"
         offset="0" />
      <stop
         id="stop33"
         style="stop-color:#cccccc;stop-opacity:1"
         offset="1" />
    </linearGradient>
    <linearGradient
       spreadMethod="pad"
       xlink:href="#linearGradient2199"
       y2="104.0591"
       x2="63.9995"
       y1="21.941401"
       x1="63.9995"
       gradientUnits="userSpaceOnUse"
       id="XMLID_5_">
      <stop
         id="stop24"
         style="stop-color:#dadada;stop-opacity:1"
         offset="0" />
      <stop
         id="stop26"
         style="stop-color:#cccccc;stop-opacity:1"
         offset="1" />
    </linearGradient>
    <linearGradient
       spreadMethod="pad"
       id="linearGradient2199"
       gradientUnits="userSpaceOnUse"
       x1="63.9995"
       y1="21.941401"
       x2="63.9995"
       y2="104.0591"
       xlink:href="#linearGradient2193">
      <stop
         offset="0"
         style="stop-color:#FCFCFD"
         id="stop2201" />
      <stop
         offset="1"
         style="stop-color:#cccccc;stop-opacity:1"
         id="stop2203" />
    </linearGradient>
    <linearGradient
       id="linearGradient2193"
       gradientUnits="userSpaceOnUse"
       x1="63.9995"
       y1="21.941401"
       x2="63.9995"
       y2="104.0591">
      <stop
         offset="0"
         style="stop-color:#dddddd;stop-opacity:1"
         id="stop2195" />
      <stop
         offset="1"
         style="stop-color:#E8E9EF"
         id="stop2197" />
    </linearGradient>
    <linearGradient
       y2="122.8994"
       x2="63.9995"
       y1="3.1001"
       x1="63.9995"
       gradientUnits="userSpaceOnUse"
       id="XMLID_4_">
      <stop
         id="stop11"
         style="stop-color:#f2f2f2;stop-opacity:1"
         offset="0" />
      <stop
         id="stop13"
         style="stop-color:#d8d8d8;stop-opacity:1"
         offset="1" />
    </linearGradient>
    <linearGradient
       y2="17.470011"
       x2="27.192274"
       y1="2.9136841"
       x1="10.650842"
       gradientTransform="matrix(0.8563683,0,0,0.9968005,3.3880698,-4.3947632)"
       gradientUnits="userSpaceOnUse"
       id="linearGradient3443"
       xlink:href="#linearGradient10591"
       inkscape:collect="always" />
    <radialGradient
       gradientUnits="userSpaceOnUse"
       gradientTransform="matrix(3.5913266e-8,0.5232304,-0.7982339,5.4788839e-8,41.419381,9.9685873)"
       r="17"
       fy="21.822403"
       fx="24"
       cy="21.822403"
       cx="24"
       id="radialGradient3374"
       xlink:href="#linearGradient12071"
       inkscape:collect="always" />
    <radialGradient
       r="19.61445"
       fy="46.869949"
       fx="24.45439"
       cy="46.869949"
       cx="24.45439"
       gradientTransform="matrix(1.0196564,0,0,0.2039312,-0.935075,33.441752)"
       gradientUnits="userSpaceOnUse"
       id="radialGradient3370"
       xlink:href="#linearGradient3437"
       inkscape:collect="always" />
    <linearGradient
       y2="13.996504"
       x2="22.015385"
       y1="45"
       x1="22.015385"
       gradientUnits="userSpaceOnUse"
       id="linearGradient3367"
       xlink:href="#linearGradient3257"
       inkscape:collect="always" />
    <linearGradient
       y2="32.161697"
       x2="40.938126"
       y1="32.161697"
       x1="6.72682"
       gradientTransform="matrix(0.943025,0,0,1.1298556,1.3703378,-7.8420138)"
       gradientUnits="userSpaceOnUse"
       id="linearGradient3365"
       xlink:href="#linearGradient2411"
       inkscape:collect="always" />
    <linearGradient
       y2="36.127281"
       x2="30.875446"
       y1="25.002281"
       x1="10.907269"
       gradientTransform="matrix(0.9405192,0,0,1.1176137,1.4447998,-5.9978884)"
       gradientUnits="userSpaceOnUse"
       id="linearGradient3352"
       xlink:href="#linearGradient9845"
       inkscape:collect="always" />
    <linearGradient
       y2="17"
       x2="24.75"
       y1="21"
       x1="24.875"
       gradientTransform="matrix(0.9422167,0,0,1.5,1.3898222,-9.4028767)"
       gradientUnits="userSpaceOnUse"
       id="linearGradient3349"
       xlink:href="#linearGradient5881"
       inkscape:collect="always" />
    <linearGradient
       y2="18.037588"
       x2="21.941509"
       y1="21.550869"
       x1="21.941509"
       gradientTransform="matrix(0.9413543,0,0,0.7755502,1.4105206,6.2414233)"
       gradientUnits="userSpaceOnUse"
       id="linearGradient3346"
       xlink:href="#linearGradient12071"
       inkscape:collect="always" />
    <radialGradient
       r="3.3125"
       fy="20.3125"
       fx="15.9375"
       cy="20.3125"
       cx="15.9375"
       gradientTransform="matrix(1.3870968,0,0,0.8113208,-7.0120971,1.9296697)"
       gradientUnits="userSpaceOnUse"
       id="radialGradient3342"
       xlink:href="#linearGradient6075"
       inkscape:collect="always" />
    <radialGradient
       r="3.3125"
       fy="20.3125"
       fx="15.9375"
       cy="20.3125"
       cx="15.9375"
       gradientTransform="matrix(1.3870968,0,0,0.8113208,10.987903,1.9296697)"
       gradientUnits="userSpaceOnUse"
       id="radialGradient3339"
       xlink:href="#linearGradient6075"
       inkscape:collect="always" />
    <radialGradient
       r="3.1819806"
       fy="6.2806997"
       fx="18.031223"
       cy="6.2806997"
       cx="18.031223"
       gradientUnits="userSpaceOnUse"
       id="radialGradient3328"
       xlink:href="#linearGradient6057"
       inkscape:collect="always" />
    <linearGradient
       y2="13.789077"
       x2="35.020981"
       y1="13.789077"
       x1="32.128025"
       gradientTransform="translate(-19.532826,1.7437184)"
       gradientUnits="userSpaceOnUse"
       id="linearGradient3326"
       xlink:href="#linearGradient6227"
       inkscape:collect="always" />
    <linearGradient
       y2="14.849737"
       x2="33.004314"
       y1="14.849737"
       x1="35.004684"
       gradientTransform="translate(1.6824037,1.125)"
       gradientUnits="userSpaceOnUse"
       id="linearGradient3324"
       xlink:href="#linearGradient6227"
       inkscape:collect="always" />
    <linearGradient
       y2="17.470011"
       x2="27.192274"
       y1="2.9136841"
       x1="10.650842"
       gradientTransform="translate(0,-1.926279)"
       gradientUnits="userSpaceOnUse"
       id="linearGradient3322"
       xlink:href="#linearGradient10591"
       inkscape:collect="always" />
    <linearGradient
       id="linearGradient6057">
      <stop
         offset="0"
         style="stop-color:#ffffff;stop-opacity:1"
         id="stop6059" />
      <stop
         offset="1"
         style="stop-color:#ffffff;stop-opacity:0"
         id="stop6061" />
    </linearGradient>
    <filter
       id="filter5745"
       color-interpolation-filters="sRGB">
      <feGaussianBlur
         id="feGaussianBlur5747"
         stdDeviation="0.8362597"
         inkscape:collect="always" />
    </filter>
    <linearGradient
       id="linearGradient10591">
      <stop
         offset="0"
         style="stop-color:#cad0c6;stop-opacity:1"
         id="stop10593" />
      <stop
         offset="0.5"
         style="stop-color:#eaece9;stop-opacity:1"
         id="stop10599" />
      <stop
         offset="1"
         style="stop-color:#c5cbc0;stop-opacity:1"
         id="stop10595" />
    </linearGradient>
    <linearGradient
       id="linearGradient6227">
      <stop
         offset="0"
         style="stop-color:#000000;stop-opacity:1"
         id="stop6229" />
      <stop
         offset="1"
         style="stop-color:#000000;stop-opacity:0"
         id="stop6231" />
    </linearGradient>
    <filter
       id="filter6251"
       height="1.0951581"
       y="-0.047579072"
       width="1.4848505"
       x="-0.24242526"
       color-interpolation-filters="sRGB">
      <feGaussianBlur
         id="feGaussianBlur6253"
         stdDeviation="0.24444548"
         inkscape:collect="always" />
    </filter>
    <linearGradient
       id="linearGradient6075">
      <stop
         offset="0"
         style="stop-color:#000000;stop-opacity:1"
         id="stop6077" />
      <stop
         offset="1"
         style="stop-color:#000000;stop-opacity:0"
         id="stop6079" />
    </linearGradient>
    <filter
       id="filter5957"
       height="1.1647059"
       y="-0.082352944"
       width="1.9882354"
       x="-0.49411765"
       color-interpolation-filters="sRGB">
      <feGaussianBlur
         id="feGaussianBlur5959"
         stdDeviation="0.69878785"
         inkscape:collect="always" />
    </filter>
    <linearGradient
       id="linearGradient12071">
      <stop
         offset="0"
         style="stop-color:#ffffff;stop-opacity:1"
         id="stop12073" />
      <stop
         offset="1"
         style="stop-color:#ffffff;stop-opacity:0"
         id="stop12075" />
    </linearGradient>
    <linearGradient
       id="linearGradient5881">
      <stop
         offset="0"
         style="stop-color:#d6c8a7;stop-opacity:1"
         id="stop5883" />
      <stop
         offset="1"
         style="stop-color:#d0bd99;stop-opacity:1"
         id="stop5885" />
    </linearGradient>
    <linearGradient
       id="linearGradient9845">
      <stop
         offset="0"
         style="stop-color:#ffffff;stop-opacity:1"
         id="stop9847" />
      <stop
         offset="1"
         style="stop-color:#ffffff;stop-opacity:0.49484536"
         id="stop9849" />
    </linearGradient>
    <linearGradient
       id="linearGradient2411">
      <stop
         offset="0"
         style="stop-color:#fee7b1;stop-opacity:1"
         id="stop2413" />
      <stop
         offset="0.25796592"
         style="stop-color:#ebd4b4;stop-opacity:1"
         id="stop2419" />
      <stop
         offset="0.50796592"
         style="stop-color:#c8a775;stop-opacity:1"
         id="stop2421" />
      <stop
         offset="0.74009573"
         style="stop-color:#ebd4b4;stop-opacity:1;"
         id="stop2423" />
      <stop
         offset="1"
         style="stop-color:#c2a65e;stop-opacity:1;"
         id="stop2415" />
    </linearGradient>
    <linearGradient
       id="linearGradient3257">
      <stop
         offset="0"
         style="stop-color:#957747;stop-opacity:1"
         id="stop3259" />
      <stop
         offset="1"
         style="stop-color:#ae8c56;stop-opacity:1"
         id="stop3261" />
    </linearGradient>
    <linearGradient
       id="linearGradient3437">
      <stop
         offset="0"
         style="stop-color:#000000;stop-opacity:1"
         id="stop3439" />
      <stop
         offset="1"
         style="stop-color:#000000;stop-opacity:0"
         id="stop3441" />
    </linearGradient>
    <linearGradient
       inkscape:collect="always"
       xlink:href="#linearGradient3257"
       id="linearGradient4095"
       gradientUnits="userSpaceOnUse"
       x1="22.015385"
       y1="45"
       x2="22.015385"
       y2="13.996504" />
    <linearGradient
       y2="26.022909"
       x2="-8.7979088"
       y1="26.022909"
       x1="3.8877637"
       gradientTransform="matrix(-1.6727172,0,0,1.567355,75.245828,47.508321)"
       gradientUnits="userSpaceOnUse"
       id="linearGradient3831"
       xlink:href="#linearGradient4222"
       inkscape:collect="always" />
    <linearGradient
       id="linearGradient4222">
      <stop
         id="stop4224"
         offset="0"
         style="stop-color:#ffffff;stop-opacity:1;" />
      <stop
         id="stop4226"
         offset="1"
         style="stop-color:#ffffff;stop-opacity:0;" />
    </linearGradient>
    <linearGradient
       y2="28.280676"
       x2="62.400131"
       y1="28.280676"
       x1="3.8738406"
       gradientTransform="matrix(1.4862123,0,0,1.4715013,-0.998984,54.21865)"
       gradientUnits="userSpaceOnUse"
       id="linearGradient3834"
       xlink:href="#linearGradient3840"
       inkscape:collect="always" />
    <linearGradient
       id="linearGradient3840">
      <stop
         id="stop3842"
         offset="0"
         style="stop-color:#eda606;stop-opacity:1;" />
      <stop
         style="stop-color:#efb220;stop-opacity:1;"
         offset="0.31757474"
         id="stop3844" />
      <stop
         id="stop3846"
         offset="1"
         style="stop-color:#f1be3b;stop-opacity:0;" />
    </linearGradient>
    <linearGradient
       y2="26.597807"
       x2="41.81702"
       y1="45.610001"
       x1="41.81702"
       gradientTransform="matrix(0,-2.9226076,-2.9518257,0,169.75111,208.64009)"
       gradientUnits="userSpaceOnUse"
       id="linearGradient3836"
       xlink:href="#linearGradient5432"
       inkscape:collect="always" />
    <linearGradient
       id="linearGradient5432">
      <stop
         style="stop-color:#a65612;stop-opacity:1;"
         offset="0"
         id="stop5434" />
      <stop
         style="stop-color:#a65612;stop-opacity:0;"
         offset="1"
         id="stop5436" />
    </linearGradient>
    <linearGradient
       y2="26.022909"
       x2="-8.7979088"
       y1="26.022909"
       x1="3.8877637"
       gradientTransform="matrix(1.6727172,0,0,1.567355,52.821794,-0.5347054)"
       gradientUnits="userSpaceOnUse"
       id="linearGradient2511"
       xlink:href="#linearGradient4222"
       inkscape:collect="always" />
    <linearGradient
       y2="23.890968"
       x2="2.4973762"
       y1="23.890968"
       x1="62.952984"
       gradientTransform="matrix(-1.4862123,0,0,1.4715013,129.06661,6.1756237)"
       gradientUnits="userSpaceOnUse"
       id="linearGradient2514"
       xlink:href="#linearGradient3793"
       inkscape:collect="always" />
    <linearGradient
       id="linearGradient3793">
      <stop
         style="stop-color:#8cab2a;stop-opacity:0;"
         offset="0"
         id="stop3795" />
      <stop
         id="stop3797"
         offset="0.6127364"
         style="stop-color:#b1c948;stop-opacity:1;" />
      <stop
         style="stop-color:#d7e866;stop-opacity:1;"
         offset="1"
         id="stop3799" />
    </linearGradient>
    <linearGradient
       gradientTransform="matrix(0,-2.9226076,2.9518257,0,-41.683484,160.59707)"
       y2="26.149443"
       x2="40.808029"
       y1="44.845047"
       x1="40.808029"
       gradientUnits="userSpaceOnUse"
       id="linearGradient2516"
       xlink:href="#linearGradient3480"
       inkscape:collect="always" />
    <linearGradient
       id="linearGradient3480">
      <stop
         style="stop-color:#548820;stop-opacity:1"
         offset="0"
         id="stop3482" />
      <stop
         style="stop-color:#548820;stop-opacity:0;"
         offset="1"
         id="stop3484" />
    </linearGradient>
  </defs>
  <g
     id="layer1"
     transform="matrix(4.8893621,0,0,4.8893621,-27.128638,-37.553819)">
    <path
       d="m 63,53.499998 c 0,5.79899 -13.879175,10.5 -31,10.5 -17.120825,0 -31,-4.70101 -31,-10.5 0,-5.79899 13.879175,-10.5 31,-10.5 17.120825,0 31,4.70101 31,10.5 l 0,0 z"
       id="path8836"
       style="opacity:0.3;fill:url(#radialGradient2506);fill-opacity:1;fill-rule:evenodd;stroke:none;stroke-width:0.99999988;marker:none;visibility:visible;display:inline;overflow:visible"
       inkscape:connector-curvature="0" />
    <path
       d="M 57.499999,33.999097 C 57.499999,48.082811 46.082419,59.5 32.00032,59.5 17.916933,59.5 6.5,48.082681 6.5,33.999097 6.5,19.916029 17.916933,8.5000003 32.00032,8.5000003 c 14.082099,0 25.499679,11.4160287 25.499679,25.4990967 l 0,0 z"
       id="path6495"
       style="fill:url(#radialGradient2480);fill-opacity:1;fill-rule:nonzero;stroke:url(#linearGradient2482);stroke-width:1;stroke-miterlimit:4;stroke-dasharray:none"
       inkscape:connector-curvature="0" />
    <path
       d="m 56.499998,33.999131 c 0,13.531412 -10.96983,24.500867 -24.499689,24.500867 -13.531098,0 -24.5003092,-10.969579 -24.5003092,-24.500867 0,-13.530787 10.9692112,-24.4991303 24.5003092,-24.4991303 13.529859,0 24.499689,10.9683433 24.499689,24.4991303 l 0,0 z"
       id="path8655"
       style="opacity:0.4;fill:none;stroke:url(#linearGradient2498);stroke-width:0.99999994;stroke-miterlimit:4;stroke-opacity:1;stroke-dasharray:none"
       inkscape:connector-curvature="0" />
    <path
       d="m 32.577265,9.0000006 -3.108347,0.3563354 -3.419186,0.935382 c 0.291255,-0.102262 0.58631,-0.213885 0.888101,-0.3117939 l -0.399646,-0.7126715 -1.332149,0.2227095 -0.666075,0.6235879 -1.021315,0.133626 -0.932503,0.44542 -0.444049,0.22271 -0.133217,0.178167 -0.666073,0.133626 -0.399643,0.846298 -0.532863,-1.069007 -0.177617,0.445419 0.08882,1.202634 -0.843695,0.712671 -0.488454,1.291718 1.021316,0 0.399642,-0.846296 0.133217,-0.311795 c 0.449063,-0.318547 0.874776,-0.673303 1.332149,-0.979925 l 1.065718,0.356337 c 0.693862,0.472862 1.3926,0.953199 2.087035,1.425344 l 1.021305,-0.935383 -1.154529,-0.489961 -0.532859,-1.069008 -1.953819,-0.222711 -0.04441,-0.222708 0.843693,0.178167 0.488457,-0.489962 1.065719,-0.22271 c 0.252201,-0.123035 0.500291,-0.211652 0.754882,-0.311793 l -0.666074,0.623588 2.397869,1.648052 0,0.979924 -0.932504,0.935382 1.243338,2.494353 0.843695,-0.489965 1.065722,-1.648052 c 1.498322,-0.464667 2.848704,-1.005369 4.26288,-1.648054 l -0.08882,0.623588 0.710477,0.489962 1.243341,-0.846298 -0.621671,-0.712672 -0.843696,0.489963 -0.266429,-0.08908 c 0.0612,-0.02805 0.116158,-0.06057 0.177618,-0.08908 L 35.285967,10.069007 32.577265,9.0000006 z M 20.4103,13.810536 l 1.021314,0.71267 0.843696,0 0,-0.846298 -1.021313,-0.44542 -0.843697,0.579048 0,0 z m 23.57904,-0.579048 -1.820602,0.44542 -1.154527,0.757214 0,0.668129 -1.820604,1.158091 0.35524,1.737141 1.065719,-0.757217 0.666073,0.757217 0.754888,0.44542 0.488453,-1.29172 -0.26643,-0.757213 0.26643,-0.534506 1.06572,-0.979923 0.488454,0 -0.488454,1.069012 0,0.97992 c 0.439258,-0.119935 0.882631,-0.166646 1.332149,-0.222711 l -1.24334,0.890844 -0.08881,0.5345 -1.42096,1.202637 -1.465365,-0.356339 0,-0.846298 -0.666074,0.445421 0.310836,0.757216 -1.065721,0 -0.577264,0.979923 -0.71048,0.801755 -1.287744,0.267251 0.754885,0.757214 0.17762,0.757213 -0.932505,0 -1.243339,0.668131 0,1.959845 0.577264,0 0.532859,0.579047 1.198935,-0.579047 0.44405,-1.202633 0.8881,-0.534503 0.177619,-0.445421 1.420959,-0.356335 0.79929,0.890838 0.843696,0.445421 -0.488457,0.979926 0.754888,-0.222713 0.399641,-0.979924 -0.976907,-1.113548 0.399643,0 0.97691,0.801756 0.177621,1.069008 0.843693,0.979924 0.222024,-1.425343 0.444051,-0.222711 c 0.472664,0.492194 0.84524,1.094119 1.243339,1.648054 l 1.465365,0.08909 0.843693,0.534503 -0.399644,0.579047 -0.843695,0.757214 -1.24334,0 -1.642983,-0.534503 -0.843695,0.08909 -0.621669,0.712675 -1.7762,-1.781681 -1.243338,-0.356336 -1.820604,0.222711 -1.598579,0.445418 c -0.911925,1.037031 -1.845574,2.085482 -2.708705,3.162483 l -1.021313,2.494349 0.488455,0.534505 -0.888101,1.291717 0.97691,2.271641 c 0.812894,0.92239 1.630563,1.838555 2.442274,2.761602 l 1.198934,-1.024466 0.488455,0.62359 1.287746,-0.846297 0.444049,0.489961 1.287743,0 0.754886,0.846297 -0.44405,1.514428 0.888098,1.024466 -0.04441,1.781678 0.666073,1.291718 -0.488454,1.113549 c -0.04762,0.798649 -0.08882,1.561949 -0.08882,2.360725 0.391786,1.082146 0.784579,2.161635 1.15453,3.251564 l 0.26643,1.737136 0,0.890841 0.710477,0 1.021316,-0.668129 1.243341,0 1.865008,-2.093473 -0.222025,-0.712674 1.243341,-1.113548 -0.932507,-1.024465 1.110124,-0.890838 1.065721,-0.668133 0.488454,-0.534503 -0.310834,-1.202633 c 0,-1.012491 2e-6,-2.016228 0,-3.028856 l 0.843696,-1.870761 1.065717,-1.158092 1.15453,-2.850687 0,-0.757213 c -0.574531,0.0726 -1.125221,0.13805 -1.687389,0.178169 l 1.154529,-1.158093 1.598578,-1.069006 0.843696,-0.979927 0,-1.069006 c -0.191358,-0.361986 -0.384603,-0.75156 -0.577269,-1.113546 l -0.754885,0.890838 -0.577264,-0.668128 -0.843696,-0.668131 0,-1.380802 0.976911,1.113551 1.110126,-0.133626 c 0.500809,0.456049 0.981696,0.861561 1.420957,1.380801 L 57,30.112899 c 0,-0.863155 -0.969175,-5.124305 -3.063942,-8.730227 -2.094769,-3.604733 -5.772649,-6.904007 -5.772646,-6.904007 l -0.266432,0.489961 -0.976909,1.069009 -1.243339,-1.291719 1.243339,0 0.577266,-0.623588 -2.30906,-0.44542 -1.198937,-0.44542 z m -26.687389,0.579048 -0.444049,1.15809 c 0,0 -0.777422,0.128745 -0.976908,0.178169 C 13.333358,17.501679 8.1959014,22.609524 7,32.206374 c 0.047351,0.222504 0.843694,1.514425 0.843694,1.514425 l 1.9538185,1.158094 1.9538205,0.534502 0.843694,1.024466 1.287744,0.979923 0.754884,-0.133626 0.53286,0.267254 0,0.178165 -0.71048,2.004392 -0.577264,0.846299 0.17762,0.400875 -0.44405,1.603513 1.642984,3.028854 1.68739,1.469886 0.754882,1.069006 -0.08882,2.227099 0.53286,1.247174 -0.53286,2.40527 c 0,0 -0.07111,-0.01978 0,0.222711 0.07174,0.242603 2.968328,1.874632 3.152751,1.737136 0.18379,-0.14006 0.35524,-0.267253 0.35524,-0.267253 l -0.177618,-0.534504 0.754885,-0.71267 0.266428,-0.757215 1.198936,-0.40088 0.932503,-2.316181 -0.26643,-0.623588 0.621669,-0.979923 1.42096,-0.311794 0.71048,-1.692595 -0.177621,-2.093474 1.110126,-1.558967 0.177618,-1.603511 C 26.16956,41.381586 24.675183,40.603108 23.163399,39.823052 l -0.754886,-1.469884 -1.376553,-0.311794 -0.754885,-2.004391 -1.820603,0.22271 -1.598581,-1.15809 -1.687388,1.469885 0,0.222711 c -0.505409,-0.146333 -1.104139,-0.167865 -1.554165,-0.44542 l -0.355239,-1.069009 0,-1.158092 -1.154529,0.133626 c 0.09291,-0.737676 0.217278,-1.48955 0.310833,-2.227098 l -0.666075,0 -0.666075,0.846297 -0.621671,0.311793 -0.9325031,-0.534502 -0.088811,-1.158093 0.1776201,-1.247175 1.376555,-1.069007 1.110124,0 0.222025,-0.623588 1.376555,0.311792 1.021314,1.291719 0.17762,-2.138017 1.776198,-1.469883 0.621669,-1.558969 1.332151,-0.534503 0.710479,-1.06901 1.687389,-0.311794 0.843695,-1.247175 c -0.835088,0 -1.695996,0 -2.531084,0 l 1.59858,-0.757214 1.110123,0 1.42096,-0.489961 0.26643,1.380801 0.62167,-0.979924 -0.710482,-0.489961 0.177621,-0.579045 -0.577264,-0.534506 -0.621671,-0.178167 0.177621,-0.668129 -0.488456,-0.935379 -1.110124,0.445417 0.177621,-0.846296 -1.287745,-0.757216 -1.021313,1.78168 0.08882,0.623587 -1.021313,0.445421 -0.62167,1.380801 -0.310835,-1.291719 -1.731794,-0.71267 -0.310835,-0.979923 2.353464,-1.33626 1.021313,-0.979923 0.08882,-1.158094 -0.577265,-0.311793 -0.754886,-0.08908 -1.5e-5,-10e-7 z m 19.049736,2.138017 0,0.712667 0.399645,0.445421 0,1.069008 -0.222026,1.425343 1.15453,-0.222711 0.843696,-0.846296 -0.754885,-0.712673 C 37.527845,17.16541 37.279751,16.575731 36.973358,15.948553 l -0.621671,0 z m -0.976911,1.425339 -0.710477,0.222714 0.177618,1.291715 0.932504,-0.489965 -0.399645,-1.024464 0,0 z m 13.010659,11.714542 1.065718,1.247175 1.287745,2.761604 0.799289,0.890837 -0.399643,0.935385 0.71048,0.846299 c -0.326043,0.02165 -0.641795,0.04454 -0.97691,0.04454 -0.608779,-1.283192 -1.090582,-2.57727 -1.554174,-3.919694 l -0.79929,-0.890839 -0.444051,-1.603512 0.310836,-0.311795 0,-5e-6 z"
       id="path6534"
       style="opacity:0.4;fill:#000000;fill-opacity:1;fill-rule:nonzero;stroke:none"
       inkscape:connector-curvature="0" />
  </g>
  <text
     xml:space="preserve"
     style="font-size:160.04588318px;font-style:normal;font-weight:normal;line-height:125%;letter-spacing:0px;word-spacing:0px;fill:#000000;fill-opacity:1;stroke:#f1fcfd;stroke-width:4.00114679;stroke-opacity:1;font-family:Sans"
     x="21.79302"
     y="208.81239"
     id="text3007"
     sodipodi:linespacing="125%"><tspan
       sodipodi:role="line"
       id="tspan3009"
       x="21.79302"
       y="208.81239"
       style="font-size:224.06422424px;font-style:normal;font-variant:normal;font-weight:500;font-stretch:normal;stroke-width:4.00114679;font-family:Ubuntu;-inkscape-font-specification:Ubuntu Medium">P²</tspan></text>
  <g
     inkscape:label="Layer 1"
     id="layer1-4"
     transform="matrix(2.574071,0,0,2.8498147,92.367931,127.24418)">
    <path
       id="path4348"
       d="M 92.008625,9.3282083 126.34517,39.99775 92.008625,70.667292 l 0,-16.0015 -55.671887,0 0,-29.336084 55.671887,0 0,-16.0014997 z"
       style="fill:url(#linearGradient2514);fill-opacity:1;fill-rule:nonzero;stroke:url(#linearGradient2516);stroke-width:2.66691661;stroke-linecap:round;stroke-linejoin:round;stroke-miterlimit:4;stroke-opacity:1;stroke-dasharray:none;stroke-dashoffset:0;marker:none;visibility:visible;display:inline;overflow:visible"
       sodipodi:nodetypes="cccccccc"
       transform="matrix(0.3749648,0,0,0.3749648,0,0.00224979)"
       inkscape:connector-curvature="0" />
    <path
       id="path4360"
       d="m 94.675542,15.641691 27.565128,24.356059 -27.565128,24.648646 0,-12.647521 -55.576261,0 -0.161406,-24.00225 55.737667,0 0,-12.354934 z"
       style="opacity:0.35400008;fill:none;stroke:url(#linearGradient2511);stroke-width:2.66691661;stroke-linecap:butt;stroke-linejoin:miter;stroke-miterlimit:4;stroke-opacity:1;stroke-dasharray:none;stroke-dashoffset:0;marker:none;visibility:visible;display:inline;overflow:visible"
       sodipodi:nodetypes="cccccccc"
       transform="matrix(0.3749648,0,0,0.3749648,0,0.00224979)"
       inkscape:connector-curvature="0" />
    <path
       id="path3801"
       d="m 36.059001,57.371236 -34.336545,30.669541 34.336545,30.669543 0,-16.0015 55.671887,0 0,-29.336085 -55.671887,0 0,-16.001499 z"
       style="fill:url(#linearGradient3834);fill-opacity:1;fill-rule:nonzero;stroke:url(#linearGradient3836);stroke-width:2.66691661;stroke-linecap:round;stroke-linejoin:round;stroke-miterlimit:4;stroke-opacity:1;stroke-dasharray:none;stroke-dashoffset:0;marker:none;visibility:visible;display:inline;overflow:visible"
       sodipodi:nodetypes="cccccccc"
       transform="matrix(0.3749648,0,0,0.3749648,0,0.00224979)"
       inkscape:connector-curvature="0" />
    <path
       id="path3803"
       d="m 33.392084,63.684717 -27.565128,24.35606 27.565128,24.648643 0,-12.64752 55.576264,0 0.1614,-24.002248 -55.737664,0 0,-12.354935 z"
       style="opacity:0.35400008;fill:none;stroke:url(#linearGradient3831);stroke-width:2.66691661;stroke-linecap:butt;stroke-linejoin:miter;stroke-miterlimit:4;stroke-opacity:1;stroke-dasharray:none;stroke-dashoffset:0;marker:none;visibility:visible;display:inline;overflow:visible"
       sodipodi:nodetypes="cccccccc"
       transform="matrix(0.3749648,0,0,0.3749648,0,0.00224979)"
       inkscape:connector-curvature="0" />
  </g>
</svg>
